<?xml version="1.0" standalone="no"?>
<!DOCTYPE svg PUBLIC "-//W3C//DTD SVG 20010904//EN"
 "http://www.w3.org/TR/2001/REC-SVG-20010904/DTD/svg10.dtd">
<svg version="1.0" xmlns="http://www.w3.org/2000/svg"
 width="180.000000pt" height="180.000000pt" viewBox="0 0 180.000000 180.000000"
 preserveAspectRatio="xMidYMid meet">
<metadata>
Created by potrace 1.14, written by Peter Selinger 2001-2017
</metadata>
<g transform="translate(0.000000,180.000000) scale(0.100000,-0.100000)"
fill="#000000" stroke="none">
<path d="M696 1675 c-109 -63 -202 -115 -207 -115 -12 0 -12 11 -14 -259 l-1
-244 28 -16 c28 -16 37 -31 18 -31 -6 0 -15 -11 -22 -25 -10 -22 -13 -23 -30
-11 -18 13 -40 2 -231 -108 l-212 -122 0 -249 0 -249 211 -121 210 -122 205
118 c112 65 207 120 211 121 4 2 9 15 10 31 2 22 7 27 30 27 24 0 28 -4 28
-27 1 -26 18 -38 213 -149 l211 -121 211 122 210 121 0 248 0 248 -210 123
c-189 110 -212 121 -230 108 -25 -17 -36 -17 -29 1 3 9 -4 19 -17 26 l-22 12
30 24 30 23 0 244 -1 244 -201 116 c-111 64 -208 119 -216 122 -8 2 -103 -47
-213 -110z m376 -81 l168 -95 0 -200 0 -199 -32 -16 -33 -15 -138 79 -139 80
-136 -80 -137 -80 -32 18 -33 17 0 198 0 197 43 25 c23 14 65 37 92 53 28 15
82 46 120 70 39 23 74 43 80 43 5 1 85 -42 177 -95z m-33 -497 c107 -63 113
-46 -42 -136 -49 -28 -93 -51 -98 -51 -5 0 -59 30 -120 66 l-112 66 114 68
c130 77 103 78 258 -13z m-323 -183 c70 -41 141 -82 157 -90 28 -15 32 -14
187 76 136 78 162 90 180 80 45 -24 25 -45 -127 -133 -82 -47 -157 -92 -167
-100 -18 -13 -19 -27 -18 -195 1 -187 -5 -220 -40 -207 -15 6 -17 29 -16 195
0 103 -2 192 -5 198 -4 5 -79 51 -167 102 -116 67 -160 97 -160 110 0 17 23
39 41 40 4 0 65 -34 135 -76z m-236 -47 c13 -10 15 -41 15 -177 l0 -165 147
-84 c137 -78 147 -86 146 -113 -1 -26 -12 -36 -117 -97 -64 -38 -141 -82 -171
-99 l-55 -31 -129 74 c-71 41 -131 75 -133 75 -2 0 -20 11 -41 24 l-38 23 1
196 c1 108 3 198 6 200 5 5 140 82 209 120 30 17 69 39 85 49 35 21 54 22 75
5z m1044 -79 c88 -50 163 -93 166 -95 7 -6 6 -383 -1 -394 -3 -6 -80 -52 -170
-104 l-163 -93 -46 24 c-25 13 -101 56 -169 96 -103 60 -125 78 -128 99 -4 33
-6 31 157 126 l135 78 -1 160 c0 166 6 195 44 195 8 0 87 -41 176 -92z m-856
-28 l119 -70 0 -140 c0 -77 -2 -140 -4 -140 -1 0 -37 20 -79 45 -41 25 -78 45
-80 45 -2 0 -22 11 -44 25 l-40 25 0 140 c0 77 2 140 4 140 2 0 58 -32 124
-70z m592 -80 l-5 -132 -118 -69 c-65 -38 -119 -69 -121 -69 -1 0 -2 63 -3
140 l0 140 120 70 c67 38 124 66 127 61 3 -5 3 -68 0 -141z"/>
</g>
</svg>
