<?xml version="1.0" encoding="UTF-8"?>
<svg width="51px" height="51px" viewBox="0 0 51 51" version="1.1" xmlns="http://www.w3.org/2000/svg" xmlns:xlink="http://www.w3.org/1999/xlink">
    <title>chart</title>
    <g id="Page-1" stroke="none" stroke-width="1" fill="none" fill-rule="evenodd">
        <g id="Ship-yard-Copy-2" transform="translate(-282.000000, -1265.000000)" fill="#FFFFFF">
            <g id="chart" transform="translate(282.000000, 1265.000000)">
                <path d="M25.5,2.125 C12.6108125,2.125 2.125,12.6108125 2.125,25.5 C2.125,38.3891875 12.6108125,48.875 25.5,48.875 C38.3891875,48.875 48.875,38.3891875 48.875,25.5 C48.875,12.6108125 38.3891875,2.125 25.5,2.125 M25.5,51 C11.4399375,51 0,39.5600625 0,25.5 C0,11.4399375 11.4399375,0 25.5,0 C39.5600625,0 51,11.4399375 51,25.5 C51,39.5600625 39.5600625,51 25.5,51" id="Fill-1"></path>
                <path d="M25.5,14.1398003 C19.2357347,14.1398003 14.1398003,19.2357347 14.1398003,25.5 C14.1398003,31.7631954 19.2357347,36.8601997 25.5,36.8601997 C31.7631954,36.8601997 36.8601997,31.7631954 36.8601997,25.5 C36.8601997,19.2357347 31.7631954,14.1398003 25.5,14.1398003 M25.5,39 C18.0556348,39 12,32.9443652 12,25.5 C12,18.0556348 18.0567047,12 25.5,12 C32.9443652,12 39,18.0567047 39,25.5 C39,32.9443652 32.9443652,39 25.5,39" id="Fill-3"></path>
                <path d="M41.5,2 C43.985695,2 46,4.01430502 46,6.5 C46,8.98569498 43.985695,11 41.5,11 C39.014305,11 37,8.98569498 37,6.5 C37,4.01430502 39.014305,2 41.5,2" id="Fill-5"></path>
                <path d="M18,32 C19.6571334,32 21,33.3428666 21,35 C21,36.6571334 19.6571334,38 18,38 C16.3428666,38 15,36.6571334 15,35 C15,33.3428666 16.3428666,32 18,32" id="Fill-7"></path>
            </g>
        </g>
    </g>
</svg>