<?xml version="1.0" encoding="UTF-8"?>
<svg width="54px" height="54px" viewBox="0 0 54 54" version="1.1" xmlns="http://www.w3.org/2000/svg" xmlns:xlink="http://www.w3.org/1999/xlink">
    <title>cockpit</title>
    <g id="Page-1" stroke="none" stroke-width="1" fill="none" fill-rule="evenodd">
        <g id="Ship-yard-Copy-2" transform="translate(-18.000000, -1263.000000)" fill="#FFFFFF">
            <g id="cockpit" transform="translate(18.000000, 1263.000000)">
                <path d="M2.0305332,27 C2.0305332,13.2316312 13.2316312,2.0305332 27,2.0305332 C40.7683688,2.0305332 51.9694668,13.2316312 51.9694668,27 C51.9694668,40.7683688 40.7683688,51.9694668 27,51.9694668 C13.2316312,51.9694668 2.0305332,40.7683688 2.0305332,27 Z M0,27 C0,41.8878694 12.1121306,54 27,54 C41.8878694,54 54,41.8878694 54,27 C54,12.1121306 41.8878694,0 27,0 C12.1121306,0 0,12.1121306 0,27 Z" id="Page-1-Copy-9"></path>
                <rect id="Rectangle-6" x="16" y="18" width="6" height="6"></rect>
                <rect id="Rectangle-6-Copy-2" x="16" y="30" width="6" height="6"></rect>
                <rect id="Rectangle-6-Copy" x="31" y="18" width="6" height="6"></rect>
                <rect id="Rectangle-6-Copy-3" x="31" y="30" width="6" height="6"></rect>
            </g>
        </g>
    </g>
</svg>