<svg width="457" height="643" viewBox="0 0 457 643" fill="none" xmlns="http://www.w3.org/2000/svg">
<path d="M210.25 642.45C195.05 640.95 187.6 639.7 175.25 636.5C137.15 626.65 101.15 606.55 73.5497 579.8C56.9497 563.75 44.9997 548.9 33.7997 530.5C20.7497 509.1 10.0497 481.9 5.04966 457.25C0.299661 433.8 -0.45034 404.3 3.04966 378.25C4.79966 365.5 7.54965 352.75 10.4497 344.45C11.1997 342.15 12.5997 338 13.4997 335.25C14.3997 332.5 16.7997 326.8 18.7997 322.6C20.8497 318.4 22.4997 314.8 22.4997 314.65C22.4997 314.25 27.6997 305.7 31.3997 300C35.1497 294.2 40.5997 287.5 42.8497 286C45.2497 284.35 48.5497 284.35 51.0997 286.05C54.6497 288.4 55.2497 292 53.5497 299.9C51.3997 309.7 50.7997 315 50.7997 325.25C50.8497 339.85 52.3997 350.3 56.2497 361.9C63.4497 383.4 77.5497 402.35 94.4997 413.25C108.6 422.3 126.55 426.35 129.2 421.1C129.55 420.35 129.75 419.45 129.65 419.15C129.5 418.8 127.25 416.8 124.6 414.65C113.75 406 106.05 396.75 99.0997 384.2C95.0997 377 92.4997 371 90.5497 364.5C89.6497 361.6 88.7497 358.7 88.4997 358C88.2497 357.3 87.7497 355.3 87.2997 353.5C82.9497 334.85 82.8497 313.3 86.8997 290C88.0997 283.3 93.6997 264.75 96.2497 259.3C97.0997 257.35 98.2997 254.75 98.8997 253.5C99.4497 252.25 100.5 249.85 101.2 248.15C101.9 246.45 103.6 243.15 104.9 240.9C106.25 238.6 108.25 235.05 109.4 232.95C113.95 224.5 127.45 205.95 136.25 196C137.35 194.75 138.9 192.95 139.7 192C142.9 188.15 147.55 183.35 168 162.75C198 132.5 205 124 214.65 106.5C219.9 96.95 221.35 93.7 225.5 82C226.4 79.5 227.9 73.65 228.5 70.5C228.8 68.7 229.3 66.15 229.55 64.75C230.4 60.4 230.65 47.6 230.05 41.25C229.1 31.8 227.7 25.4 224.25 14.85C223 11.05 222 7.44999 222 6.84999C222 5.34999 223.65 2.75 225.3 1.65C228.15 -0.200004 231.65 0.799994 237.7 5.09999C238.85 5.89999 241.1 7.44999 242.75 8.59999C269.75 27.3 290.95 50.9 304.65 77.6C314 95.7 318.95 110.55 321.7 128.5C323.6 140.75 324.1 150.85 323.5 163C322.65 179.45 320.35 193.5 315.75 210.75C304.05 254.3 303.35 258.1 303.3 280C303.25 292.9 303.35 294.85 304.45 300.75C306.35 311.5 308 316.75 312.2 325.7C318.15 338.45 329.2 351.05 338.5 355.75C343.35 358.15 349.1 359.25 353.3 358.45C359.35 357.35 362.8 354.25 367.85 345.35C374.95 332.9 379 311.95 377.55 295.15C376.75 285.9 374.5 274.9 371.55 266.05C367.65 254.3 367.65 254.45 369.15 251.85C371.35 248.1 375.15 247.05 379.45 249.05C382.8 250.55 386.8 253.85 396.7 263.45C422.35 288.25 440.95 321.55 450.2 359.5C455.05 379.35 457.3 403.6 456.05 423.65C454 457.95 446.3 487 431.5 516.25C420.05 538.9 406.5 557.55 388 576C379.2 584.85 374.1 589.2 363.7 597.05C348.35 608.55 329.75 619.25 312.6 626.45C291.6 635.25 270.6 640.4 247.25 642.5C240.85 643.1 216.1 643.05 210.25 642.45ZM233.8 622.95C249.2 621.45 261.45 617.25 273.5 609.25C281.9 603.7 287.55 598.35 293.8 590C305.35 574.55 311.25 557.8 311.85 538.7C312.45 520.3 308.75 504.55 298.2 480.6C290.25 462.6 272.05 433.7 250.65 405.25C248.4 402.25 245.9 398.85 245.1 397.75C244.3 396.65 241.25 392.5 238.25 388.55C231.7 379.8 219.7 362.1 215.7 355.25C211.85 348.7 206 336.35 204.1 330.7C202.2 325.2 200 316.7 200 314.9C200 312.8 198.55 309.65 197.25 308.8C194.9 307.25 192.1 308.15 190.35 310.95C189.3 312.7 189.25 313.2 189.3 324C189.35 330.2 189.7 339.65 190.05 345C191.05 359.55 190.95 387.55 189.85 395.75C187.15 415.8 182.85 431.55 175.25 449.25C174.4 451.2 168.45 463.35 167.05 465.95C166.3 467.3 160.6 477.1 154.75 487C142.65 507.55 138 524.65 139.05 544.5C139.75 557.65 142.9 568.8 148.85 579.15C158.15 595.35 169.45 606.2 185.4 614.2C190.3 616.65 198.45 619.75 202.65 620.7C212.8 623.05 224.25 623.9 233.8 622.95Z" fill="#F7F8FA"/>
</svg>
