<?xml version="1.0" encoding="UTF-8"?>
<svg width="54px" height="54px" viewBox="0 0 54 54" version="1.1" xmlns="http://www.w3.org/2000/svg" xmlns:xlink="http://www.w3.org/1999/xlink">
    <title>market</title>
    <g id="Page-1" stroke="none" stroke-width="1" fill="none" fill-rule="evenodd">
        <g id="Ship-yard-Copy-2" transform="translate(-411.000000, -1263.000000)" fill="#FFFFFF">
            <g id="market" transform="translate(411.000000, 1263.000000)">
                <path d="M34,15 L34,17.9509267 L23.1837188,17.9509267 C22.8129595,17.9509267 22.5273278,18.0644227 22.3268151,18.2914182 C22.1263024,18.5184137 22.0260476,18.8021538 22.0260476,19.142647 L22.0260476,20.4592143 C22.0260476,20.8451067 22.1244108,21.1401964 22.3211403,21.3444923 C22.5178697,21.5487883 22.8129594,21.6509347 23.2064183,21.6509347 L29.857353,21.6509347 C30.6215711,21.6509347 31.266607,21.7890216 31.7924799,22.0651994 C32.3183528,22.3413773 32.7439629,22.6875402 33.0693231,23.1036986 C33.3946833,23.519857 33.6311334,23.970058 33.7786805,24.454315 C33.9262276,24.9385721 34,25.388773 34,25.8049315 L33.9925163,32.4377066 C33.9965382,32.5504859 34,32.6685466 34,32.7895479 L34,34.1061151 C34,34.3860762 33.9678428,34.681166 33.9035274,34.9913931 C33.839212,35.3016203 33.7370656,35.6099512 33.597085,35.9163951 C33.4571045,36.2228391 33.279294,36.5160372 33.0636483,36.7959983 C32.8480026,37.0759594 32.5869617,37.3237591 32.2805177,37.5394048 C31.9740738,37.7550505 31.6203445,37.9271862 31.2193191,38.055817 C30.8182937,38.1844477 30.3680928,38.2487622 29.8687027,38.2487622 L19.0524215,38.2487622 L19.0524215,35.2978355 L29.8687027,35.2978355 C30.239462,35.2978355 30.5250937,35.1843395 30.7256064,34.957344 C30.9261191,34.7303485 31.0263739,34.4466084 31.0263739,34.1061151 L31.0263739,32.7895479 C31.0263739,32.4036555 30.9280107,32.1085658 30.7312812,31.9042699 C30.5345518,31.6999739 30.2394621,31.5978275 29.8460032,31.5978275 L23.1950685,31.5978275 C22.4308504,31.5978275 21.7858145,31.4597406 21.2599416,31.1835628 C20.7340688,30.9073849 20.3084586,30.561222 19.9830984,30.1450636 C19.6577382,29.7289052 19.4212881,29.2787042 19.273741,28.7944472 C19.1261939,28.3101901 19.0524215,27.8599891 19.0524215,27.4438307 L19,20.4592143 L19.0524727,20.4846674 C19.0524386,20.4761975 19.0524215,20.4677132 19.0524215,20.4592143 L19.0524215,19.142647 C19.0524215,18.8626859 19.0845787,18.5675962 19.1488941,18.257369 C19.2132095,17.9471419 19.3153559,17.6388109 19.4553365,17.332367 C19.595317,17.0259231 19.7731275,16.732725 19.9887732,16.4527639 C20.204419,16.1728028 20.4654599,15.9250031 20.7719038,15.7093574 C21.0783477,15.4937117 21.432077,15.321576 21.8331024,15.1929452 C22.2341278,15.0643144 22.6843287,15 23.1837188,15 L34,15 Z M30.7474758,24.9243561 L22.0033482,24.9241933 L22.0033482,27.4438307 C22.0033482,27.8342012 22.1038973,28.1277407 22.3049987,28.324458 L31.0490733,28.3245688 L31.0490733,25.8049315 C31.0490733,25.4145953 30.9485418,25.121073 30.7474758,24.9243561 Z" id="Combined-Shape" fill-opacity="0.5"></path>
                <path d="M2.0305332,27 C2.0305332,13.2316312 13.2316312,2.0305332 27,2.0305332 C40.7683688,2.0305332 51.9694668,13.2316312 51.9694668,27 C51.9694668,40.7683688 40.7683688,51.9694668 27,51.9694668 C13.2316312,51.9694668 2.0305332,40.7683688 2.0305332,27 Z M0,27 C0,41.8878694 12.1121306,54 27,54 C41.8878694,54 54,41.8878694 54,27 C54,12.1121306 41.8878694,0 27,0 C12.1121306,0 0,12.1121306 0,27 Z" id="Page-1" opacity="0.5"></path>
            </g>
        </g>
    </g>
</svg>