<svg width="921" height="916" viewBox="0 0 921 916" fill="none" xmlns="http://www.w3.org/2000/svg">
<path d="M33.5638 162.342C33.8559 160.676 34.1395 159.1 34.4123 157.616C111.867 156.294 164.699 146.106 210.483 124.053C254.784 102.714 291.021 70.8299 335.589 29.8989C380.19 70.8666 416.417 102.779 460.749 124.122C506.461 146.129 559.225 156.295 636.588 157.616C636.861 159.1 637.144 160.676 637.436 162.342C639.918 176.503 643.011 197.158 645.374 222.794C650.104 274.124 651.875 345.092 640.124 423.71C617.074 577.922 542.266 760.801 335.5 884.314C128.734 760.801 53.9265 577.922 30.8759 423.71C19.1246 345.092 20.8959 274.124 25.6263 222.794C27.9888 197.158 31.0817 176.503 33.5638 162.342Z" stroke="url(#paint0_linear_126_28)" stroke-width="44"/>
<rect x="719" y="131" width="182" height="182" rx="20" stroke="url(#paint1_linear_126_28)" stroke-width="40"/>
<rect x="719" y="367" width="182" height="182" rx="20" stroke="url(#paint2_linear_126_28)" stroke-width="40"/>
<rect x="719" y="603" width="182" height="182" rx="20" stroke="url(#paint3_linear_126_28)" stroke-width="40"/>
<defs>
<linearGradient id="paint0_linear_126_28" x1="335.5" y1="0" x2="335.5" y2="916" gradientUnits="userSpaceOnUse">
<stop stop-color="#47B8F1"/>
<stop offset="1" stop-color="#63E9FD"/>
</linearGradient>
<linearGradient id="paint1_linear_126_28" x1="810" y1="111" x2="810" y2="333" gradientUnits="userSpaceOnUse">
<stop stop-color="#47B8F1"/>
<stop offset="1" stop-color="#63E9FD"/>
</linearGradient>
<linearGradient id="paint2_linear_126_28" x1="810" y1="347" x2="810" y2="569" gradientUnits="userSpaceOnUse">
<stop stop-color="#47B8F1"/>
<stop offset="1" stop-color="#63E9FD"/>
</linearGradient>
<linearGradient id="paint3_linear_126_28" x1="810" y1="583" x2="810" y2="805" gradientUnits="userSpaceOnUse">
<stop stop-color="#47B8F1"/>
<stop offset="1" stop-color="#63E9FD"/>
</linearGradient>
</defs>
</svg>
