<svg width="151" height="151" viewBox="0 0 151 151" fill="none" xmlns="http://www.w3.org/2000/svg">
<circle cx="75.5" cy="75.5" r="71" stroke="white" stroke-width="9"/>
<path d="M87 47.7476V71.9388C86.5156 72.4693 85.7726 73.1872 84.7558 73.9138C82.6535 75.4159 79.3266 77 74.5 77C69.6734 77 66.3465 75.4159 64.2442 73.9138C63.2274 73.1872 62.4844 72.4693 62 71.9388V47.7476C62.0371 47.6751 62.0799 47.595 62.1287 47.5084C62.4327 46.9693 62.962 46.1943 63.8161 45.401C65.4452 43.8877 68.583 42 74.5 42C80.417 42 83.5548 43.8877 85.1839 45.401C86.038 46.1943 86.5673 46.9693 86.8713 47.5084C86.9201 47.595 86.9629 47.6751 87 47.7476Z" stroke="white" stroke-width="8"/>
<path d="M53.5 112.5L43 102L52 89H97L108 102L97 112.5" stroke="white" stroke-width="10" stroke-linejoin="round"/>
</svg>
