<?xml version="1.0" encoding="UTF-8"?>
<svg width="55px" height="54px" viewBox="0 0 55 54" version="1.1" xmlns="http://www.w3.org/2000/svg" xmlns:xlink="http://www.w3.org/1999/xlink">
    <title>user</title>
    <g id="Page-1" stroke="none" stroke-width="1" fill="none" fill-rule="evenodd">
        <g id="Ship-yard-Copy-2" transform="translate(-542.000000, -1263.000000)" fill="#FFFFFF">
            <path d="M563.4084,1278.88621 C563.4084,1275.71385 565.989208,1273.13304 569.161578,1273.13304 L569.838422,1273.13304 C573.010792,1273.13304 575.5916,1275.71385 575.5916,1278.88621 L575.5916,1284.38558 C575.5916,1287.55795 573.010792,1290.13875 569.838422,1290.13875 L569.161578,1290.13875 C565.989208,1290.13875 563.4084,1287.55795 563.4084,1284.38558 L563.4084,1278.88621 Z M569.161578,1292.16929 L569.838422,1292.16929 C574.130293,1292.16929 577.622133,1288.67745 577.622133,1284.38558 L577.622133,1278.88621 C577.622133,1274.59434 574.130293,1271.1025 569.838422,1271.1025 L569.161578,1271.1025 C564.869707,1271.1025 561.377867,1274.59434 561.377867,1278.88621 L561.377867,1284.38558 C561.377867,1288.67745 564.869707,1292.16929 569.161578,1292.16929 L569.161578,1292.16929 Z M578.637399,1295.09055 L560.362601,1295.09055 C556.07073,1295.09055 552.57889,1298.58239 552.57889,1302.87426 C552.57889,1303.13823 552.68177,1303.39204 552.865195,1303.58156 L557.819696,1308.687 C558.018688,1308.89208 558.283335,1308.99496 558.547981,1308.99496 C558.802474,1308.99496 559.057645,1308.89953 559.255283,1308.70798 C559.657329,1308.31812 559.666805,1307.67511 559.276265,1307.27239 L554.62296,1302.47627 C554.828044,1299.48868 557.324246,1297.12108 560.362601,1297.12108 L578.637399,1297.12108 C581.675754,1297.12108 584.172633,1299.48868 584.376363,1302.47627 L580.293638,1306.68421 C579.903098,1307.08694 579.912574,1307.72994 580.31462,1308.1198 C580.718019,1308.51102 581.360344,1308.50086 581.750207,1308.09882 L586.134128,1303.58156 C586.31823,1303.39204 586.42111,1303.13823 586.42111,1302.87426 C586.42111,1298.58306 582.92927,1295.09055 578.637399,1295.09055 L578.637399,1295.09055 Z M569.5,1314.96947 C555.731631,1314.96947 544.530533,1303.76837 544.530533,1290 C544.530533,1276.23163 555.731631,1265.03053 569.5,1265.03053 C583.268369,1265.03053 594.469467,1276.23163 594.469467,1290 C594.469467,1303.76837 583.268369,1314.96947 569.5,1314.96947 L569.5,1314.96947 Z M569.5,1263 C554.612131,1263 542.5,1275.11213 542.5,1290 C542.5,1304.88787 554.612131,1317 569.5,1317 C584.387869,1317 596.5,1304.88787 596.5,1290 C596.5,1275.11213 584.387869,1263 569.5,1263 L569.5,1263 Z" id="user"></path>
        </g>
    </g>
</svg>